<svg id="svg" version="1.1" width="500" height="529" xmlns="http://www.w3.org/2000/svg" xmlns:xlink="http://www.w3.org/1999/xlink" style="display: block;"><g id="svgg"><path id="path0" d="M72.997 46.261 C 72.200 46.768,72.035 66.777,72.197 143.649 L 72.400 240.400 84.996 240.620 L 97.593 240.841 97.796 156.620 L 98.000 72.400 215.200 72.400 L 332.400 72.400 332.400 215.200 L 332.400 358.000 215.200 358.000 L 98.000 358.000 97.600 338.800 L 97.200 319.600 86.400 319.370 C 80.460 319.243,74.786 319.341,73.791 319.587 L 71.982 320.035 72.191 351.818 L 72.400 383.600 215.200 383.600 L 358.000 383.600 358.202 215.684 C 358.350 92.231,358.165 47.481,357.504 46.684 C 356.485 45.457,74.923 45.038,72.997 46.261 M156.800 112.066 C 138.851 117.304,131.222 139.706,142.900 152.884 C 144.150 154.295,143.603 156.800,142.046 156.800 C 135.800 156.800,120.895 184.427,125.209 188.008 C 126.898 189.409,148.881 188.682,149.652 187.200 C 149.995 186.540,150.961 184.574,151.800 182.832 C 156.641 172.768,173.202 174.682,175.596 185.582 C 176.284 188.716,177.233 188.911,190.400 188.630 L 201.200 188.400 201.451 185.359 C 202.153 176.838,194.119 163.234,185.000 157.503 C 181.889 155.548,181.830 155.046,184.328 151.747 C 198.007 133.681,178.599 105.705,156.800 112.066 M229.152 112.237 C 228.933 112.807,228.854 118.477,228.977 124.837 L 229.200 136.400 266.708 136.608 C 293.738 136.758,304.522 136.563,305.308 135.910 C 306.648 134.798,306.871 115.175,305.572 112.747 C 304.513 110.769,229.907 110.270,229.152 112.237 M229.152 164.237 C 228.933 164.807,228.854 170.477,228.977 176.837 L 229.200 188.400 266.708 188.608 C 293.738 188.758,304.522 188.563,305.308 187.910 C 306.648 186.798,306.871 167.175,305.572 164.747 C 304.513 162.769,229.907 162.270,229.152 164.237 M128.186 224.214 C 123.684 228.731,120.000 232.965,120.000 233.621 C 120.000 234.278,127.020 241.828,135.600 250.400 C 144.180 258.972,151.200 266.258,151.200 266.592 C 151.200 266.927,127.821 267.200,99.247 267.200 C 62.855 267.200,47.134 267.459,46.760 268.065 C 46.343 268.740,46.166 279.865,46.382 291.800 C 46.396 292.590,57.423 292.800,98.800 292.800 C 140.400 292.800,151.200 293.008,151.200 293.808 C 151.200 294.362,144.180 301.828,135.600 310.400 C 127.020 318.972,120.000 326.428,120.000 326.970 C 120.000 328.263,135.737 344.000,137.030 344.000 C 137.578 344.000,152.415 329.596,170.000 311.990 L 201.973 279.980 169.990 247.990 C 152.400 230.396,137.639 216.000,137.189 216.000 C 136.740 216.000,132.688 219.696,128.186 224.214 M228.980 254.200 L 229.200 266.800 266.535 267.008 C 299.688 267.192,304.012 267.074,305.135 265.951 C 306.432 264.653,307.066 245.868,305.914 242.865 C 305.481 241.736,301.312 241.600,267.094 241.600 L 228.759 241.600 228.980 254.200 M229.155 294.629 C 228.934 295.204,228.854 300.877,228.977 307.237 L 229.200 318.800 266.968 319.008 C 311.525 319.253,306.547 321.028,306.223 305.010 L 306.000 294.000 267.778 293.792 C 236.921 293.624,229.479 293.786,229.155 294.629 " stroke="none" fill="#000000" fill-rule="evenodd"></path><path id="path1" d="M0.000 211.600 L 0.000 423.200 200.000 423.200 L 400.000 423.200 400.000 211.600 L 400.000 0.000 200.000 0.000 L 0.000 0.000 0.000 211.600 M357.504 46.684 C 358.165 47.481,358.350 92.231,358.202 215.684 L 358.000 383.600 215.200 383.600 L 72.400 383.600 72.191 351.818 L 71.982 320.035 73.791 319.587 C 74.786 319.341,80.460 319.243,86.400 319.370 L 97.200 319.600 97.600 338.800 L 98.000 358.000 215.200 358.000 L 332.400 358.000 332.400 215.200 L 332.400 72.400 215.200 72.400 L 98.000 72.400 97.796 156.620 L 97.593 240.841 84.996 240.620 L 72.400 240.400 72.197 143.649 C 72.035 66.777,72.200 46.768,72.997 46.261 C 74.923 45.038,356.485 45.457,357.504 46.684 M172.899 113.313 C 187.367 118.516,193.606 139.494,184.328 151.747 C 181.830 155.046,181.889 155.548,185.000 157.503 C 194.119 163.234,202.153 176.838,201.451 185.359 L 201.200 188.400 190.400 188.630 C 177.233 188.911,176.284 188.716,175.596 185.582 C 173.202 174.682,156.641 172.768,151.800 182.832 C 150.961 184.574,149.995 186.540,149.652 187.200 C 148.881 188.682,126.898 189.409,125.209 188.008 C 120.895 184.427,135.800 156.800,142.046 156.800 C 143.603 156.800,144.150 154.295,142.900 152.884 C 137.151 146.396,135.935 132.929,140.375 124.913 C 146.833 113.253,159.835 108.616,172.899 113.313 M305.572 112.747 C 306.871 115.175,306.648 134.798,305.308 135.910 C 304.522 136.563,293.738 136.758,266.708 136.608 L 229.200 136.400 228.977 124.837 C 228.854 118.477,228.933 112.807,229.152 112.237 C 229.907 110.270,304.513 110.769,305.572 112.747 M305.572 164.747 C 306.871 167.175,306.648 186.798,305.308 187.910 C 304.522 188.563,293.738 188.758,266.708 188.608 L 229.200 188.400 228.977 176.837 C 228.854 170.477,228.933 164.807,229.152 164.237 C 229.907 162.270,304.513 162.769,305.572 164.747 M169.990 247.990 L 201.973 279.980 170.000 311.990 C 152.415 329.596,137.578 344.000,137.030 344.000 C 135.737 344.000,120.000 328.263,120.000 326.970 C 120.000 326.428,127.020 318.972,135.600 310.400 C 144.180 301.828,151.200 294.362,151.200 293.808 C 151.200 293.008,140.400 292.800,98.800 292.800 C 57.423 292.800,46.396 292.590,46.382 291.800 C 46.166 279.865,46.343 268.740,46.760 268.065 C 47.134 267.459,62.855 267.200,99.247 267.200 C 127.821 267.200,151.200 266.927,151.200 266.592 C 151.200 266.258,144.180 258.972,135.600 250.400 C 127.020 241.828,120.000 234.278,120.000 233.621 C 120.000 232.294,135.895 216.000,137.189 216.000 C 137.639 216.000,152.400 230.396,169.990 247.990 M305.914 242.865 C 307.066 245.868,306.432 264.653,305.135 265.951 C 304.012 267.074,299.688 267.192,266.535 267.008 L 229.200 266.800 228.980 254.200 L 228.759 241.600 267.094 241.600 C 301.312 241.600,305.481 241.736,305.914 242.865 M306.223 305.010 C 306.547 321.028,311.525 319.253,266.968 319.008 L 229.200 318.800 228.977 307.237 C 228.854 300.877,228.934 295.204,229.155 294.629 C 229.479 293.786,236.921 293.624,267.778 293.792 L 306.000 294.000 306.223 305.010 " stroke="none" fill="#ffffff" fill-rule="evenodd"></path></g></svg>